<svg width="32" height="32" viewBox="0 0 256 256" fill="none" xmlns="http://www.w3.org/2000/svg">
  <!-- Background circle with gradient -->
  <defs>
    <linearGradient id="bgGradient" x1="0%" y1="0%" x2="100%" y2="100%">
      <stop offset="0%" style="stop-color:#6366f1;stop-opacity:1" />
      <stop offset="100%" style="stop-color:#3b82f6;stop-opacity:1" />
    </linearGradient>
    <linearGradient id="cloudGradient" x1="0%" y1="0%" x2="100%" y2="100%">
      <stop offset="0%" style="stop-color:#ffffff;stop-opacity:0.95" />
      <stop offset="100%" style="stop-color:#f1f5f9;stop-opacity:0.95" />
    </linearGradient>
    <linearGradient id="clipboardGradient" x1="0%" y1="0%" x2="100%" y2="100%">
      <stop offset="0%" style="stop-color:#ffffff;stop-opacity:1" />
      <stop offset="100%" style="stop-color:#e2e8f0;stop-opacity:1" />
    </linearGradient>
  </defs>
  
  <!-- Background -->
  <circle cx="128" cy="128" r="120" fill="url(#bgGradient)" />
  
  <!-- Cloud shape -->
  <path d="M80 110c-12 0-22 10-22 22 0 8 4 15 11 19h74c7-4 11-11 11-19 0-12-10-22-22-22-2-15-15-26-30-26s-28 11-30 26h8z" fill="url(#cloudGradient)" stroke="#e2e8f0" stroke-width="2"/>
  
  <!-- Clipboard body -->
  <rect x="90" y="140" width="76" height="90" rx="8" fill="url(#clipboardGradient)" stroke="#cbd5e1" stroke-width="2"/>
  
  <!-- Clipboard clip -->
  <rect x="115" y="130" width="26" height="20" rx="3" fill="#64748b" />
  <rect x="118" y="133" width="20" height="14" rx="2" fill="#f8fafc" />
  
  <!-- Document lines -->
  <rect x="102" y="160" width="52" height="3" rx="1.5" fill="#94a3b8" />
  <rect x="102" y="170" width="42" height="3" rx="1.5" fill="#94a3b8" />
  <rect x="102" y="180" width="48" height="3" rx="1.5" fill="#94a3b8" />
  <rect x="102" y="190" width="38" height="3" rx="1.5" fill="#94a3b8" />
  
  <!-- Sync/connection indicators (small dots) -->
  <circle cx="75" cy="95" r="3" fill="#10b981" />
  <circle cx="181" cy="95" r="3" fill="#10b981" />
  <circle cx="85" cy="85" r="2" fill="#34d399" />
  <circle cx="171" cy="85" r="2" fill="#34d399" />
</svg>